<svg width="24" height="24" viewBox="0 0 24 24" fill="none" xmlns="http://www.w3.org/2000/svg">
<path d="M8.68243 21.7377V18.1972C8.68243 17.2934 9.42047 16.5607 10.3309 16.5607H13.6589C14.0961 16.5607 14.5154 16.7331 14.8245 17.04C15.1337 17.3469 15.3074 17.7631 15.3074 18.1972V21.7377C15.3046 22.1135 15.453 22.4748 15.7197 22.7414C15.9864 23.0081 16.3492 23.1581 16.7277 23.1581H18.9982C20.0587 23.1608 21.0766 22.7445 21.8274 22.0011C22.5782 21.2577 23.0002 20.2482 23.0002 19.1955V9.10906C23.0002 8.2587 22.6204 7.45208 21.9634 6.90651L14.2395 0.782591C12.8959 -0.291141 10.9708 -0.256473 9.66736 0.864929L2.11971 6.90651C1.4316 7.436 1.02032 8.24501 1 9.10906V19.1852C1 21.3794 2.79172 23.1581 5.00191 23.1581H7.22059C8.00673 23.1581 8.64563 22.5284 8.65133 21.748L8.68243 21.7377Z" fill="#149FD9"/>
</svg>
