<svg width="24" height="24" viewBox="0 0 24 24" fill="none" xmlns="http://www.w3.org/2000/svg">
<path d="M10.1561 1.85449C11.1861 0.968425 12.7094 0.940444 13.7714 1.78906L13.7733 1.79102L21.4891 7.9082C21.9725 8.31195 22.2499 8.90617 22.2499 9.53027V19.6162C22.2499 20.4678 21.9087 21.2856 21.2997 21.8887C20.6904 22.492 19.8628 22.8313 18.9999 22.8291H16.7274C16.5471 22.8291 16.3753 22.7572 16.2499 22.6318C16.1247 22.5066 16.0562 22.3381 16.0575 22.1641V18.6182C16.0575 17.9835 15.8028 17.3758 15.3524 16.9287C14.9023 16.4819 14.2932 16.2315 13.6591 16.2314H10.3309C9.01147 16.2314 7.9325 17.295 7.9325 18.6182V21.6162L7.90515 21.626L7.90125 22.1631C7.89859 22.5263 7.59972 22.829 7.22058 22.8291H5.00183C3.2008 22.8291 1.75006 21.3811 1.74988 19.6064V9.54785C1.76484 8.91156 2.06756 8.3139 2.57703 7.92188L2.58289 7.91699L2.58875 7.91309L10.1356 1.87109L10.1464 1.86328L10.1561 1.85449Z" stroke="#1A1A1A" stroke-width="1.5"/>
</svg>
